<svg xmlns="http://www.w3.org/2000/svg" width="256" height="256" viewBox="0 0 100 100"><path d="M24.58 90.34L24.58 90.34Q23.33 90.34 22.63 89.43Q21.92 88.52 21.49 86.65Q21.05 84.78 20.72 81.98Q20.39 79.18 19.89 75.38Q19.39 71.58 18.60 66.81Q17.81 62.04 16.40 56.23L16.40 56.23Q15.41 52.16 13.83 48.40Q12.25 44.65 10.43 41.37Q8.60 38.09 6.73 35.39Q4.86 32.69 3.37 30.76Q1.88 28.83 0.90 27.77Q-0.07 26.72-0.07 26.67L-0.07 26.67L3.33 23.27Q3.37 23.35 4.16 24.25Q4.95 25.14 6.17 26.88Q7.40 28.63 8.93 31.28Q10.47 33.94 12.09 37.53Q13.70 41.12 15.28 45.70Q16.86 50.29 18.10 55.89L18.10 55.89Q19.85 63.70 20.72 69.80Q21.59 75.90 22.11 80.09Q22.63 84.28 23.13 86.46Q23.62 88.64 24.66 88.64L24.66 88.64Q26.20 86.98 27.36 84.39Q28.52 81.79 29.46 78.55Q30.39 75.32 31.12 71.60Q31.84 67.89 32.42 63.99Q33.00 60.09 33.52 56.14Q34.04 52.20 34.56 48.55Q35.08 44.90 35.64 41.68Q36.20 38.46 36.91 36.01L36.91 36.01Q38.28 31.16 40.29 27.38Q42.30 23.60 44.56 20.74Q46.82 17.88 49.15 15.84Q51.47 13.81 53.44 12.50Q55.42 11.19 56.89 10.53Q58.36 9.87 58.90 9.66L58.90 9.66L59.69 11.11Q59.65 11.15 58.53 11.80Q57.41 12.44 55.67 13.93Q53.92 15.43 51.74 17.88Q49.56 20.32 47.43 23.98Q45.29 27.63 43.38 32.55Q41.47 37.47 40.23 43.90L40.23 43.90Q39.94 45.35 39.38 48.13Q38.81 50.91 38.03 54.46Q37.24 58.01 36.28 62.04Q35.33 66.06 34.23 70.05Q33.13 74.03 31.93 77.70Q30.72 81.38 29.50 84.18Q28.27 86.98 27.03 88.66Q25.78 90.34 24.58 90.34ZM59.57 62.45L59.57 62.45Q59.57 59.96 60.75 58.13Q61.93 56.31 63.80 54.61L63.80 54.61Q63.22 54.23 62.55 54.05Q61.89 53.86 61.27 53.86L61.27 53.86Q59.90 53.86 58.34 54.54Q56.79 55.23 55.48 56.85Q54.17 58.47 53.30 61.19Q52.43 63.90 52.43 67.97L52.43 67.97Q52.43 71.33 53.24 73.74Q54.05 76.15 55.46 77.70Q56.87 79.26 58.74 79.99Q60.60 80.71 62.72 80.71L62.72 80.71Q65.25 80.71 67.24 79.41Q69.24 78.10 70.90 75.79Q72.56 73.49 73.99 70.40Q75.42 67.31 76.83 63.74L76.83 63.74L78.41 64.15Q77.58 66.19 76.69 68.34Q75.79 70.50 74.74 72.60Q73.68 74.69 72.41 76.56Q71.15 78.43 69.51 79.84Q67.87 81.25 65.83 82.08Q63.80 82.91 61.27 82.91L61.27 82.91Q58.70 82.91 56.39 82.06Q54.09 81.21 52.34 79.49Q50.60 77.77 49.56 75.15Q48.53 72.54 48.53 69.01L48.53 69.01Q48.53 65.44 49.71 62.37Q50.89 59.30 52.72 57.06Q54.54 54.81 56.74 53.53Q58.94 52.24 60.94 52.24L60.94 52.24Q63.26 52.24 65.09 53.44L65.09 53.44Q65.42 53.20 65.73 52.93Q66.04 52.66 66.37 52.32L66.37 52.32L67.29 53.61Q67.04 53.86 66.79 54.07Q66.54 54.27 66.29 54.52L66.29 54.52Q67.04 55.44 67.51 56.68Q67.99 57.93 67.99 59.46L67.99 59.46Q67.99 61.16 67.60 62.47Q67.20 63.78 66.52 64.69Q65.83 65.61 64.96 66.06Q64.09 66.52 63.14 66.52L63.14 66.52Q62.64 66.52 62.02 66.29Q61.39 66.06 60.85 65.58Q60.31 65.11 59.94 64.34Q59.57 63.57 59.57 62.45ZM66.29 59.46L66.29 59.46Q66.29 58.26 65.94 57.30Q65.58 56.35 65.00 55.64L65.00 55.64Q63.47 56.97 62.37 58.61Q61.27 60.25 61.27 62.45L61.27 62.45Q61.27 63.61 61.85 64.26Q62.43 64.90 63.22 64.90L63.22 64.90Q64.13 64.90 64.73 64.32Q65.34 63.74 65.67 62.89Q66.00 62.04 66.15 61.10Q66.29 60.17 66.29 59.46ZM79.78 60.58L79.78 60.58Q79.32 61.79 78.89 62.95Q78.45 64.11 77.93 65.27Q77.41 66.44 76.71 67.56Q76.00 68.68 75.01 69.84L75.01 69.84L74.67 69.51Q75.75 66.89 76.58 64.15Q77.41 61.41 78.24 58.01L78.24 58.01Q78.04 57.43 77.87 57.01Q77.70 56.60 77.58 56.25Q77.45 55.89 77.37 55.50Q77.29 55.10 77.29 54.61L77.29 54.61Q77.29 53.94 77.48 53.13Q77.66 52.32 78.02 51.62Q78.37 50.91 78.82 50.44Q79.28 49.96 79.78 49.96L79.78 49.96Q80.36 49.96 80.71 50.23Q81.07 50.50 81.27 50.91Q81.48 51.33 81.56 51.78Q81.65 52.24 81.65 52.66L81.65 52.66Q81.65 53.28 81.50 54.09Q81.36 54.90 81.17 55.67Q80.98 56.43 80.84 57.01Q80.69 57.60 80.69 57.76L80.69 57.76Q81.02 58.88 81.83 60.04Q82.64 61.21 83.68 62.41Q84.72 63.61 85.86 64.92Q87.00 66.23 87.93 67.68Q88.87 69.13 89.47 70.77Q90.07 72.41 90.07 74.24L90.07 74.24Q90.07 76.85 89.30 78.47Q88.54 80.09 87.25 80.96L87.25 80.96Q89.12 80.21 90.76 78.31Q92.40 76.40 93.79 73.93Q95.18 71.46 96.36 68.76Q97.54 66.06 98.46 63.74L98.46 63.74L100.07 64.15Q98.66 67.76 97.09 71.21Q95.51 74.65 93.52 77.35Q91.52 80.05 89.01 81.71Q86.50 83.37 83.27 83.37L83.27 83.37Q82.39 83.37 81.50 83.22Q80.61 83.08 79.76 82.77Q78.91 82.46 78.16 81.92Q77.41 81.38 76.87 80.63L76.87 80.63L78.24 79.72Q78.62 80.30 79.41 80.80Q80.19 81.29 81.48 81.29L81.48 81.29Q82.73 81.29 83.66 80.78Q84.59 80.26 85.24 79.36Q85.88 78.47 86.19 77.27Q86.50 76.06 86.50 74.69L86.50 74.69Q86.50 71.87 85.69 69.84Q84.88 67.81 83.78 66.21Q82.68 64.61 81.54 63.28Q80.40 61.95 79.78 60.58Z" fill="#7a007a"></path></svg>